<?xml version="1.0" encoding="UTF-8" standalone="no"?>
<!DOCTYPE svg PUBLIC "-//W3C//DTD SVG 1.1//EN" "http://www.w3.org/Graphics/SVG/1.1/DTD/svg11.dtd">
<svg width="100%" height="100%" viewBox="0 0 2481 3508" version="1.1" xmlns="http://www.w3.org/2000/svg" xmlns:xlink="http://www.w3.org/1999/xlink" xml:space="preserve" xmlns:serif="http://www.serif.com/" style="fill-rule:evenodd;clip-rule:evenodd;stroke-miterlimit:10;">
    <g id="Page-1" serif:id="Page 1" transform="matrix(4.166667,0,0,4.166667,0,0)">
        <rect x="0" y="0" width="595.276" height="841.89" style="fill:none;"/>
        <clipPath id="_clip1">
            <rect x="0" y="0" width="595.276" height="841.89"/>
        </clipPath>
        <g clip-path="url(#_clip1)">
            <g id="ESSAI-1" serif:id="ESSAI 1">
                <g transform="matrix(-0.963178,0.268866,0.268866,0.963178,51.357389,332.414239)">
                    <path d="M-391.619,360.567L66.241,360.567L-48.466,-50.353L-507.241,-53.634L-391.619,360.567Z" style="fill:white;fill-rule:nonzero;stroke:rgb(87,87,86);stroke-width:2px;"/>
                </g>
                <g transform="matrix(-0.89007,-0.455824,-0.455824,0.89007,101.8362,526.964114)">
                    <path d="M-45.371,10.942L2.639,10.942" style="fill:none;fill-rule:nonzero;stroke:rgb(87,87,86);stroke-width:2px;"/>
                </g>
                <g transform="matrix(-0.890068,-0.455827,-0.455827,0.890068,97.312408,366.636422)">
                    <path d="M-55.469,13.377L3.226,13.377" style="fill:none;fill-rule:nonzero;stroke:rgb(87,87,86);stroke-width:2px;"/>
                </g>
                <g transform="matrix(-0.890065,-0.455834,-0.455834,0.890065,116.645863,276.743818)">
                    <path d="M-158.492,38.224L9.219,38.224" style="fill:none;fill-rule:nonzero;stroke:rgb(87,87,86);stroke-width:2px;"/>
                </g>
                <g transform="matrix(-0.890066,-0.455832,-0.455832,0.890066,126.401586,237.50916)">
                    <path d="M-190.109,45.849L11.058,45.849" style="fill:none;fill-rule:nonzero;stroke:rgb(87,87,86);stroke-width:2px;"/>
                </g>
                <g transform="matrix(-0.890066,-0.455831,-0.455831,0.890066,213.956535,466.736494)">
                    <path d="M-79.159,19.091L4.604,19.091" style="fill:none;fill-rule:nonzero;stroke:rgb(87,87,86);stroke-width:2px;"/>
                </g>
                <g transform="matrix(-0.890072,-0.45582,-0.45582,0.890072,308.039394,495.639715)">
                    <path d="M-18.798,4.534L1.093,4.534" style="fill:none;fill-rule:nonzero;stroke:rgb(87,87,86);stroke-width:2px;"/>
                </g>
                <g transform="matrix(-0.890072,-0.45582,-0.45582,0.890072,350.535994,485.026815)">
                    <path d="M-18.798,4.534L1.093,4.534" style="fill:none;fill-rule:nonzero;stroke:rgb(87,87,86);stroke-width:2px;"/>
                </g>
                <g transform="matrix(-0.890068,-0.455827,-0.455827,0.890068,418.439218,451.024398)">
                    <path d="M-37.345,9.007L2.172,9.007" style="fill:none;fill-rule:nonzero;stroke:rgb(87,87,86);stroke-width:2px;"/>
                </g>
                <g transform="matrix(-0.890063,-0.455838,-0.455838,0.890063,360.391695,389.990928)">
                    <path d="M-58.107,14.014L3.38,14.014" style="fill:none;fill-rule:nonzero;stroke:rgb(87,87,86);stroke-width:2px;"/>
                </g>
                <g transform="matrix(-0.890067,-0.45583,-0.45583,0.890067,158.469527,230.341147)">
                    <path d="M-188.586,45.482L10.969,45.481" style="fill:none;fill-rule:nonzero;stroke:rgb(87,87,86);stroke-width:2px;"/>
                </g>
                <g transform="matrix(-0.890065,-0.455834,-0.455834,0.890065,173.017782,223.980115)">
                    <path d="M-191.567,46.201L11.142,46.201" style="fill:none;fill-rule:nonzero;stroke:rgb(87,87,86);stroke-width:2px;"/>
                </g>
                <g transform="matrix(-0.890066,-0.455832,-0.455832,0.890066,204.955,216.699522)">
                    <path d="M-190.213,45.874L11.064,45.874" style="fill:none;fill-rule:nonzero;stroke:rgb(87,87,86);stroke-width:2px;"/>
                </g>
                <g transform="matrix(-0.890066,-0.455831,-0.455831,0.890066,288.646252,184.152722)">
                    <path d="M-250.821,60.491L14.589,60.491" style="fill:none;fill-rule:nonzero;stroke:rgb(87,87,86);stroke-width:2px;"/>
                </g>
                <g transform="matrix(-0.890066,-0.455831,-0.455831,0.890066,251.978452,193.920022)">
                    <path d="M-250.821,60.491L14.589,60.491" style="fill:none;fill-rule:nonzero;stroke:rgb(87,87,86);stroke-width:2px;"/>
                </g>
                <g transform="matrix(-0.890064,-0.455835,-0.455835,0.890064,359.78603,335.896304)">
                    <path d="M-57.778,13.934L3.361,13.934" style="fill:none;fill-rule:nonzero;stroke:rgb(87,87,86);stroke-width:2px;"/>
                </g>
                <g transform="matrix(-0.890057,-0.455849,-0.455849,0.890057,355.029996,374.050596)">
                    <path d="M-14.323,3.455L0.833,3.455" style="fill:none;fill-rule:nonzero;stroke:rgb(87,87,86);stroke-width:2px;"/>
                </g>
                <g transform="matrix(1,0,0,1,206.0712,480.5794)">
                    <path d="M0,-24.038C10.24,-26.704 17.606,-30.767 22.103,-36.234C26.595,-41.697 28.823,-47.859 28.778,-54.72C28.736,-61.268 26.437,-66.057 21.89,-69.089C17.338,-72.121 9.944,-72.304 -0.296,-69.638L-34.088,-60.841L-33.792,-15.24L0,-24.038ZM-68.839,76.805L-69.847,-78.469L5.162,-97.997C13.522,-100.173 21.042,-100.843 27.715,-100.003C34.388,-99.164 40.128,-97.064 44.938,-93.712C49.743,-90.355 53.45,-85.973 56.049,-80.559C58.649,-75.146 59.971,-68.931 60.017,-61.916C60.062,-54.9 58.825,-48.056 56.303,-41.39C53.782,-34.721 50.144,-28.619 45.396,-23.09C40.644,-17.557 34.949,-12.717 28.308,-8.569C21.668,-4.418 14.164,-1.257 5.804,0.92L-33.621,11.184L-33.255,67.541L-68.839,76.805Z" style="fill:rgb(29,29,27);fill-rule:nonzero;"/>
                </g>
                <g transform="matrix(-0.006491,-0.999979,-0.999979,0.006491,373.842648,454.281553)">
                    <path d="M-66.668,99.572L90.48,99.572L98.928,66.237L-58.22,66.237L-66.668,99.572Z" style="fill:rgb(29,29,27);fill-rule:nonzero;"/>
                </g>
                <g transform="matrix(-0.006491,-0.999979,-0.999979,0.006491,421.203252,441.952353)">
                    <path d="M-66.668,99.573L90.481,99.573L98.929,66.237L-58.22,66.236L-66.668,99.573Z" style="fill:rgb(29,29,27);fill-rule:nonzero;"/>
                </g>
                <g transform="matrix(1,0,0,1,446.9935,373.152)">
                    <path d="M0,103.589L-22.241,74.712L-43.521,114.919L-83.458,125.316L-41.598,55.624L-82.924,9.931L-42.731,-0.533L-21.266,27.375L0.022,-11.663L38.677,-21.727L-2.685,45.493L40.704,92.992L0,103.589Z" style="fill:rgb(29,29,27);fill-rule:nonzero;"/>
                </g>
                <g transform="matrix(-0.963178,0.268866,0.268866,0.963178,51.357389,332.414239)">
                    <path d="M-391.619,360.567L66.241,360.567L-48.466,-50.353L-507.241,-53.634L-391.619,360.567Z" style="fill:none;fill-rule:nonzero;stroke:rgb(29,29,27);stroke-width:20px;"/>
                </g>
            </g>
        </g>
    </g>
</svg>
